<svg width="349" height="229" viewBox="0 0 349 229" fill="none" xmlns="http://www.w3.org/2000/svg">
<path d="M293.288 72.5746C290.397 32.0947 256.567 0 215.509 0C174.162 0 140.332 32.0947 137.73 72.5746C107.081 74.0203 82.5039 99.4648 82.5039 130.692C82.5039 162.787 108.527 188.81 140.621 188.81H290.686C322.781 188.81 348.804 162.787 348.804 130.692C348.514 99.7539 324.226 74.3094 293.288 72.5746Z" fill="url(#paint0_radial_13_3488)"/>
<path opacity="0.6" d="M221.003 80.0918C199.028 62.4541 190.643 35.2748 201.92 19.6611C213.196 4.04748 240.376 5.78233 262.061 23.42C284.036 41.0576 292.421 68.237 281.145 83.8506C269.868 99.4643 242.689 97.7294 221.003 80.0918Z" fill="url(#paint1_radial_13_3488)"/>
<path opacity="0.4" d="M293.867 132.427C276.518 118.548 269.868 97.1512 278.831 85.0073C287.795 72.8633 308.902 74.0199 326.251 88.1878C343.599 102.067 350.249 123.463 341.286 135.607C332.033 147.751 310.926 146.305 293.867 132.427Z" fill="url(#paint2_radial_13_3488)"/>
<path opacity="0.2" d="M123.851 134.451C111.129 114.5 96.3828 104.959 90.8891 113.055C85.3954 121.151 91.1782 143.704 103.9 163.365C116.623 183.316 131.369 192.858 136.863 184.762C142.356 176.955 136.573 154.113 123.851 134.451Z" fill="url(#paint3_radial_13_3488)"/>
<path d="M211.461 112.765C208.57 72.2852 174.74 40.1904 133.682 40.1904C92.3348 40.1904 58.5051 72.2852 55.9028 112.765C25.2538 114.211 0.676758 139.655 0.676758 170.883C0.676758 202.977 26.6995 229 58.7942 229H208.281C240.375 229 266.398 202.977 266.398 170.883C266.687 139.655 242.11 114.211 211.461 112.765Z" fill="url(#paint4_radial_13_3488)"/>
<path d="M133.393 119.995C111.418 102.357 103.033 75.1776 114.31 59.564C125.586 43.9503 152.765 45.6852 174.451 63.3228C196.426 80.9605 204.811 108.14 193.534 123.753C182.258 139.367 155.368 137.632 133.393 119.995Z" fill="url(#paint5_radial_13_3488)"/>
<path opacity="0.4" d="M211.751 172.617C194.402 158.738 187.752 137.342 196.715 125.198C205.679 113.054 226.786 114.21 244.134 128.378C261.483 142.257 268.133 163.654 259.17 175.798C250.206 187.941 229.099 186.496 211.751 172.617Z" fill="url(#paint6_radial_13_3488)"/>
<path opacity="0.2" d="M42.0241 174.352C29.3018 154.401 14.5556 144.86 9.06193 152.956C3.56823 161.052 9.35107 183.605 22.0733 203.266C34.7955 223.217 49.5418 232.759 55.0355 224.663C60.5291 216.856 54.4572 194.303 42.0241 174.352Z" fill="url(#paint7_radial_13_3488)"/>
<defs>
<radialGradient id="paint0_radial_13_3488" cx="0" cy="0" r="1" gradientUnits="userSpaceOnUse" gradientTransform="translate(249.035 39.8341) rotate(180) scale(203.139 148.393)">
<stop stop-color="#B6CCD2"/>
<stop offset="0.198" stop-color="#97B6BE"/>
<stop offset="1" stop-color="#5D87B4"/>
</radialGradient>
<radialGradient id="paint1_radial_13_3488" cx="0" cy="0" r="1" gradientUnits="userSpaceOnUse" gradientTransform="translate(241.49 51.6725) rotate(126.034) scale(34.9631 51.0045)">
<stop stop-color="white"/>
<stop offset="1" stop-color="white" stop-opacity="0"/>
</radialGradient>
<radialGradient id="paint2_radial_13_3488" cx="0" cy="0" r="1" gradientUnits="userSpaceOnUse" gradientTransform="translate(309.922 110.247) rotate(126.034) scale(27.4771 40.0838)">
<stop stop-color="white"/>
<stop offset="1" stop-color="white" stop-opacity="0"/>
</radialGradient>
<radialGradient id="paint3_radial_13_3488" cx="0" cy="0" r="1" gradientUnits="userSpaceOnUse" gradientTransform="translate(113.895 148.965) rotate(-25.7092) scale(14.0837 40.9988)">
<stop stop-color="white"/>
<stop offset="1" stop-color="white" stop-opacity="0"/>
</radialGradient>
<radialGradient id="paint4_radial_13_3488" cx="0" cy="0" r="1" gradientUnits="userSpaceOnUse" gradientTransform="translate(167.027 79.8568) rotate(180) scale(203.144 148.396)">
<stop stop-color="white"/>
<stop offset="0.198" stop-color="#D5F3FF"/>
<stop offset="1" stop-color="#85BCF1"/>
</radialGradient>
<radialGradient id="paint5_radial_13_3488" cx="0" cy="0" r="1" gradientUnits="userSpaceOnUse" gradientTransform="translate(154.018 91.6975) rotate(126.034) scale(34.9635 51.0051)">
<stop stop-color="white"/>
<stop offset="1" stop-color="white" stop-opacity="0"/>
</radialGradient>
<radialGradient id="paint6_radial_13_3488" cx="0" cy="0" r="1" gradientUnits="userSpaceOnUse" gradientTransform="translate(227.913 150.271) rotate(126.034) scale(27.4767 40.0832)">
<stop stop-color="white"/>
<stop offset="1" stop-color="white" stop-opacity="0"/>
</radialGradient>
<radialGradient id="paint7_radial_13_3488" cx="0" cy="0" r="1" gradientUnits="userSpaceOnUse" gradientTransform="translate(31.8905 188.99) rotate(-25.7092) scale(14.0843 41.0005)">
<stop stop-color="white"/>
<stop offset="1" stop-color="white" stop-opacity="0"/>
</radialGradient>
</defs>
</svg>
