<svg width="30" height="30" viewBox="0 0 30 30" fill="none" xmlns="http://www.w3.org/2000/svg">
<path d="M10.4743 5C6.97835 5 4 7.868 4 11.5928C4 14.1624 5.09666 16.3258 6.5501 18.1178C7.99855 19.9037 9.86727 21.4028 11.5567 22.6574L14.4715 24.8222C14.7907 25.0593 15.2093 25.0593 15.5285 24.8222L18.4433 22.6574C20.1327 21.4028 22.0015 19.9037 23.4499 18.1178C24.9033 16.3258 26 14.1624 26 11.5928C26 7.868 23.0217 5 19.5257 5C17.7236 5 16.1379 5.92709 15 7.12667C13.8621 5.92709 12.2764 5 10.4743 5Z" fill="white"/>
</svg>
