<svg width="30" height="30" viewBox="0 0 30 30" fill="none" xmlns="http://www.w3.org/2000/svg">
<path d="M15 5C9.47734 5 5 9.44504 5 14.9278C5 16.124 5.21332 17.2712 5.60398 18.3333H24.396C24.7867 17.2712 25 16.124 25 14.9278C25 9.44504 20.5227 5 15 5Z" fill="white" fill-opacity="0.5"/>
<path d="M20.0001 9.95849L16.9022 13.1801C16.3992 12.6574 15.7048 12.3339 14.9374 12.3339C13.4028 12.3339 12.1588 13.6276 12.1588 15.2235C12.1588 15.5718 12.2181 15.9057 12.3265 16.2146L8.20993 17.7778C7.93027 16.9811 7.77783 16.1208 7.77783 15.2235C7.77783 11.1114 10.9832 7.77783 14.9374 7.77783C16.9145 7.77783 18.7042 8.61135 20.0001 9.95849Z" fill="white" fill-opacity="0.52"/>
<path d="M22.2222 15.2373C22.2222 16.1299 22.0754 16.9856 21.8063 17.7778L17.8439 16.2232C17.9483 15.9159 18.0053 15.5838 18.0053 15.2373C18.0053 14.4433 17.706 13.7251 17.2222 13.2047L20.2039 10C21.4507 11.3405 22.2222 13.192 22.2222 15.2373Z" fill="white" fill-opacity="0.52"/>
<path d="M16.9752 13.3331C16.8962 13.3331 16.8172 13.303 16.7569 13.2427C16.6364 13.1221 16.6364 12.9268 16.7569 12.8062L20.5841 8.97903C20.7046 8.85855 20.9 8.85855 21.0205 8.97903C21.1411 9.09962 21.1411 9.29501 21.0205 9.41553L17.1934 13.2428C17.1332 13.303 17.0542 13.3331 16.9752 13.3331Z" fill="white"/>
<path d="M24.4446 18.4595C23.0378 22.2757 19.3401 24.9999 15.0001 24.9999C10.6601 24.9999 6.96245 22.2757 5.55566 18.4595L12.3224 16.0127C12.2111 15.711 12.1504 15.3849 12.1504 15.0446C12.1504 13.4858 13.4263 12.2222 15.0001 12.2222C15.7873 12.2222 16.4994 12.5381 17.0153 13.0487C17.5309 13.5597 17.8498 14.265 17.8498 15.0446C17.8498 15.3849 17.7891 15.711 17.6779 16.0127L24.4446 18.4595Z" fill="white"/>
<path d="M15 13.8887C15.6138 13.8887 16.1111 14.386 16.1111 14.9998C16.1111 15.6135 15.6138 16.1109 15 16.1109C14.3863 16.1109 13.8889 15.6135 13.8889 14.9998C13.8889 14.386 14.3863 13.8887 15 13.8887Z" fill="#2D7DA7"/>
</svg>
