<svg width="296" height="289" viewBox="0 0 296 289" fill="none" xmlns="http://www.w3.org/2000/svg">
<path d="M157.811 223.205H155.338H145.445L165.849 183.634C166.776 181.779 167.395 179.924 168.013 178.07C170.486 165.704 162.757 153.647 150.7 151.174C138.335 148.7 126.278 156.429 123.805 168.486L110.202 232.171L109.893 234.025C109.584 234.953 109.584 235.88 109.584 236.808C109.584 244.537 115.767 250.41 123.186 250.41H138.335L130.297 284.107C129.988 285.344 130.297 286.581 131.533 287.508C133.079 288.436 134.934 288.126 135.861 286.89L168.013 242.372C169.559 240.208 170.486 237.735 170.486 234.953C170.177 228.77 164.612 223.205 157.811 223.205Z" fill="url(#paint0_linear_12_3601)"/>
<path d="M74.3408 245.464C71.2493 251.028 64.1388 252.883 58.5741 249.792C53.0094 246.7 51.1547 239.59 54.2461 234.025C57.3376 228.46 77.123 217.331 77.123 217.331C77.123 217.331 77.4323 239.899 74.3408 245.464Z" fill="url(#paint1_radial_12_3601)"/>
<path d="M54.5551 243.609C52.7002 238.972 53.9368 234.026 57.0283 232.48C60.1198 230.934 64.1388 233.717 65.9937 238.354C67.8485 242.991 66.612 247.938 63.5205 249.483C60.429 250.72 56.41 248.247 54.5551 243.609Z" fill="url(#paint2_radial_12_3601)"/>
<path d="M93.1989 279.47C90.1074 285.035 82.9971 286.889 77.4324 283.798C71.8677 280.707 70.0128 273.596 73.1042 268.031C76.1957 262.467 95.9813 251.337 95.9813 251.337C95.9813 251.337 96.2904 273.905 93.1989 279.47Z" fill="url(#paint3_radial_12_3601)"/>
<path d="M73.4135 277.616C71.5586 272.979 72.7953 268.032 75.8868 266.486C78.9783 264.941 82.9971 267.723 84.852 272.36C86.7069 276.998 85.4703 281.944 82.3789 283.49C78.9782 284.726 74.9592 282.253 73.4135 277.616Z" fill="url(#paint4_radial_12_3601)"/>
<path d="M223.969 245.464C220.877 251.028 213.767 252.883 208.202 249.792C202.638 246.7 200.783 239.59 203.874 234.025C206.966 228.46 226.751 217.331 226.751 217.331C226.751 217.331 227.37 239.899 223.969 245.464Z" fill="url(#paint5_radial_12_3601)"/>
<path d="M204.183 243.609C202.328 238.972 203.565 234.026 206.656 232.48C209.748 230.934 213.767 233.717 215.622 238.354C217.477 242.991 216.24 247.938 213.148 249.483C210.057 250.72 206.038 248.247 204.183 243.609Z" fill="url(#paint6_radial_12_3601)"/>
<path d="M191.817 279.47C188.726 285.035 181.615 286.889 176.05 283.798C170.486 280.707 168.631 273.596 171.722 268.031C174.814 262.467 194.599 251.337 194.599 251.337C194.599 251.337 194.909 273.905 191.817 279.47Z" fill="url(#paint7_radial_12_3601)"/>
<path d="M172.031 277.616C170.177 272.979 171.413 268.032 174.505 266.486C177.596 264.941 181.615 267.723 183.47 272.36C185.325 276.998 184.088 281.944 180.997 283.49C177.905 284.726 173.886 282.253 172.031 277.616Z" fill="url(#paint8_radial_12_3601)"/>
<path d="M219.64 152.719C261.813 152.719 296 118.532 296 76.3596C296 34.1873 261.813 0 219.64 0C177.468 0 143.281 34.1873 143.281 76.3596C143.281 118.532 177.468 152.719 219.64 152.719Z" fill="url(#paint9_radial_12_3601)"/>
<path d="M166.188 89.9383C173.33 89.2951 178.437 81.1917 177.595 71.8386C176.753 62.4856 170.28 55.4248 163.138 56.068C155.996 56.7111 150.889 64.8145 151.731 74.1676C152.573 83.5206 159.045 90.5814 166.188 89.9383Z" fill="#ACADB2"/>
<path d="M170.715 117.068C174.948 114.845 175.998 108.51 173.061 102.917C170.124 97.3246 164.312 94.5925 160.08 96.815C155.847 99.0376 154.797 105.373 157.734 110.966C160.671 116.559 166.483 119.291 170.715 117.068Z" fill="#ACADB2"/>
<path d="M183.283 102.177C185.852 100.827 186.52 97.0371 184.773 93.7117C183.026 90.3863 179.527 88.7847 176.958 90.1344C174.388 91.4841 173.721 95.2739 175.468 98.5993C177.214 101.925 180.713 103.526 183.283 102.177Z" fill="#ACADB2"/>
<path d="M279.51 97.8455C286.611 96.8437 291.303 88.4936 289.991 79.1951C288.68 69.8965 281.86 63.1706 274.759 64.1724C267.658 65.1742 262.966 73.5243 264.277 82.8229C265.589 92.1214 272.409 98.8473 279.51 97.8455Z" fill="#ACADB2"/>
<path d="M280.465 57.1113C284.579 54.677 285.307 48.2963 282.09 42.8596C278.873 37.4229 272.93 34.989 268.816 37.4234C264.702 39.8577 263.974 46.2383 267.191 51.675C270.408 57.1116 276.351 59.5456 280.465 57.1113Z" fill="#ACADB2"/>
<path d="M263.804 64.5541C266.302 63.077 266.778 59.2584 264.866 56.0251C262.955 52.7917 259.38 51.368 256.881 52.8451C254.383 54.3222 253.907 58.1407 255.819 61.3741C257.73 64.6075 261.305 66.0312 263.804 64.5541Z" fill="#ACADB2"/>
<path d="M231.079 68.631C211.602 52.8644 204.183 28.7508 214.076 15.1483C224.278 1.23663 248.082 2.78239 267.559 18.549C287.035 34.3155 294.454 58.4291 284.562 72.0316C274.36 85.9433 250.555 84.3975 231.079 68.631Z" fill="url(#paint10_radial_12_3601)"/>
<path opacity="0.4" d="M152.246 93.3626C154.719 85.0156 168.013 88.4162 181.306 101.091C194.909 113.766 203.874 131.079 201.092 139.426C198.618 147.773 185.325 144.372 172.032 131.697C158.429 119.022 149.464 101.71 152.246 93.3626Z" fill="url(#paint11_radial_12_3601)"/>
<path d="M208.202 97.0719C205.42 57.5009 172.341 25.9678 132.151 25.9678C91.9621 25.9678 58.8833 57.1918 56.101 97.0719C26.1136 98.6177 2 123.35 2 153.955C2 185.179 27.3503 210.839 58.8834 210.839H205.42C236.644 210.839 262.303 185.488 262.303 153.955C262.303 123.35 238.19 98.6177 208.202 97.0719Z" fill="url(#paint12_radial_12_3601)"/>
<path d="M263.303 153.955C263.303 123.109 239.234 98.131 209.133 96.1252C205.891 56.4504 172.577 24.9678 132.151 24.9678C91.7271 24.9678 58.4081 56.1461 55.1695 96.1253C25.0683 98.1313 1 123.109 1 153.955C1 185.728 26.7944 211.839 58.8834 211.839H205.42C237.192 211.839 263.303 186.044 263.303 153.955Z" stroke="white" stroke-opacity="0.24" stroke-width="2"/>
<path opacity="0.6" d="M132.152 104.183C110.821 86.8708 102.474 60.2841 113.603 45.1358C124.732 29.9876 151.01 31.5333 172.341 48.8456C193.673 66.1579 202.02 92.7447 190.89 107.893C180.07 123.041 153.483 121.495 132.152 104.183Z" fill="url(#paint13_radial_12_3601)"/>
<path opacity="0.4" d="M208.821 155.501C192.127 141.898 185.325 121.185 194.291 109.129C202.947 97.0718 223.66 98.6175 240.663 112.22C257.357 125.823 264.158 146.536 255.193 158.592C246.228 170.34 225.515 169.103 208.821 155.501Z" fill="url(#paint14_radial_12_3601)"/>
<path opacity="0.2" d="M42.8076 157.356C30.4416 137.88 15.9116 128.606 10.656 136.643C5.40051 144.372 10.9653 166.631 23.3312 185.798C35.6972 205.274 50.227 214.549 55.4826 206.511C61.0472 198.782 55.1735 176.524 42.8076 157.356Z" fill="url(#paint15_radial_12_3601)"/>
<defs>
<linearGradient id="paint0_linear_12_3601" x1="120.235" y1="286.351" x2="152.767" y2="183.909" gradientUnits="userSpaceOnUse">
<stop offset="0.1559" stop-color="#FFE036"/>
<stop offset="1" stop-color="#FA761C"/>
</linearGradient>
<radialGradient id="paint1_radial_12_3601" cx="0" cy="0" r="1" gradientUnits="userSpaceOnUse" gradientTransform="translate(58.8035 242.768) rotate(30.0008) scale(27.9225 27.9226)">
<stop stop-color="#D0F2FF"/>
<stop offset="0.198" stop-color="#D5F3FF"/>
<stop offset="1" stop-color="#85BCF1"/>
</radialGradient>
<radialGradient id="paint2_radial_12_3601" cx="0" cy="0" r="1" gradientUnits="userSpaceOnUse" gradientTransform="translate(60.2784 240.95) rotate(156.037) scale(6.23824 9.10007)">
<stop stop-color="white"/>
<stop offset="1" stop-color="white" stop-opacity="0"/>
</radialGradient>
<radialGradient id="paint3_radial_12_3601" cx="0" cy="0" r="1" gradientUnits="userSpaceOnUse" gradientTransform="translate(77.5138 276.772) rotate(30.0007) scale(27.9242 27.9242)">
<stop stop-color="#D0F2FF"/>
<stop offset="0.198" stop-color="#D5F3FF"/>
<stop offset="1" stop-color="#85BCF1"/>
</radialGradient>
<radialGradient id="paint4_radial_12_3601" cx="0" cy="0" r="1" gradientUnits="userSpaceOnUse" gradientTransform="translate(78.9897 274.951) rotate(156.037) scale(6.2391 9.10135)">
<stop stop-color="white"/>
<stop offset="1" stop-color="white" stop-opacity="0"/>
</radialGradient>
<radialGradient id="paint5_radial_12_3601" cx="0" cy="0" r="1" gradientUnits="userSpaceOnUse" gradientTransform="translate(208.486 242.769) rotate(30.0007) scale(27.9202 27.9201)">
<stop stop-color="#D0F2FF"/>
<stop offset="0.198" stop-color="#D5F3FF"/>
<stop offset="1" stop-color="#85BCF1"/>
</radialGradient>
<radialGradient id="paint6_radial_12_3601" cx="0" cy="0" r="1" gradientUnits="userSpaceOnUse" gradientTransform="translate(209.958 240.949) rotate(156.036) scale(6.23861 9.10069)">
<stop stop-color="white"/>
<stop offset="1" stop-color="white" stop-opacity="0"/>
</radialGradient>
<radialGradient id="paint7_radial_12_3601" cx="0" cy="0" r="1" gradientUnits="userSpaceOnUse" gradientTransform="translate(176.253 276.772) rotate(30.0008) scale(27.9213 27.9214)">
<stop stop-color="#D0F2FF"/>
<stop offset="0.198" stop-color="#D5F3FF"/>
<stop offset="1" stop-color="#85BCF1"/>
</radialGradient>
<radialGradient id="paint8_radial_12_3601" cx="0" cy="0" r="1" gradientUnits="userSpaceOnUse" gradientTransform="translate(177.728 274.951) rotate(156.037) scale(6.24 9.10264)">
<stop stop-color="white"/>
<stop offset="1" stop-color="white" stop-opacity="0"/>
</radialGradient>
<radialGradient id="paint9_radial_12_3601" cx="0" cy="0" r="1" gradientUnits="userSpaceOnUse" gradientTransform="translate(236.963 28.6998) rotate(180) scale(144.699 144.699)">
<stop stop-color="white"/>
<stop offset="0.1559" stop-color="#EFEBF2"/>
<stop offset="1" stop-color="#BCBEC4"/>
</radialGradient>
<radialGradient id="paint10_radial_12_3601" cx="0" cy="0" r="1" gradientUnits="userSpaceOnUse" gradientTransform="translate(249.374 43.5919) rotate(126.035) scale(30.9849 45.2012)">
<stop stop-color="white"/>
<stop offset="1" stop-color="white" stop-opacity="0"/>
</radialGradient>
<radialGradient id="paint11_radial_12_3601" cx="0" cy="0" r="1" gradientUnits="userSpaceOnUse" gradientTransform="translate(176.719 116.411) rotate(-136.79) scale(33.6951 14.3116)">
<stop stop-color="white"/>
<stop offset="1" stop-color="white" stop-opacity="0"/>
</radialGradient>
<radialGradient id="paint12_radial_12_3601" cx="0" cy="0" r="1" gradientUnits="userSpaceOnUse" gradientTransform="translate(165.006 64.9167) rotate(180) scale(198.334 144.883)">
<stop stop-color="#07AAFF"/>
<stop offset="0.198" stop-color="#00A8FF"/>
<stop offset="1" stop-color="#0F71A5"/>
</radialGradient>
<radialGradient id="paint13_radial_12_3601" cx="0" cy="0" r="1" gradientUnits="userSpaceOnUse" gradientTransform="translate(152.303 76.4879) rotate(126.034) scale(34.1355 49.7973)">
<stop stop-color="white"/>
<stop offset="1" stop-color="white" stop-opacity="0"/>
</radialGradient>
<radialGradient id="paint14_radial_12_3601" cx="0" cy="0" r="1" gradientUnits="userSpaceOnUse" gradientTransform="translate(224.453 133.674) rotate(126.034) scale(26.8257 39.1336)">
<stop stop-color="white"/>
<stop offset="1" stop-color="white" stop-opacity="0"/>
</radialGradient>
<radialGradient id="paint15_radial_12_3601" cx="0" cy="0" r="1" gradientUnits="userSpaceOnUse" gradientTransform="translate(33.0882 171.443) rotate(-25.7092) scale(13.7505 40.0289)">
<stop stop-color="white"/>
<stop offset="1" stop-color="white" stop-opacity="0"/>
</radialGradient>
</defs>
</svg>
