<svg width="20" height="22" viewBox="0 0 20 22" fill="none" xmlns="http://www.w3.org/2000/svg">
<path d="M16.2305 3.47139L13.6409 5.4571L14.5723 8.5892L11.8803 6.73655L9.18837 8.5892L10.1198 5.4571L7.5302 3.47139L10.7954 3.37927L11.8803 0.308594L12.9653 3.37927L16.2305 3.47139ZM19.8129 10.5442L18.1343 11.8236L18.7382 13.8503L16.9981 12.6527L15.2581 13.8503L15.862 11.8236L14.1833 10.5442L16.2919 10.493L16.9981 8.49708L17.7044 10.493L19.8129 10.5442ZM17.4792 15.6108C18.3288 15.5289 19.2397 16.7367 18.6972 17.5044C18.3697 17.965 18.0217 18.3949 17.5918 18.8043C13.5897 22.8269 7.11054 22.8269 3.11866 18.8043C-0.883465 14.8124 -0.883465 8.32307 3.11866 4.33118C3.52808 3.92176 3.95797 3.55328 4.41858 3.22574C5.18625 2.68325 6.39405 3.59422 6.31216 4.44378C6.0358 7.37116 7.01842 10.4111 9.27025 12.6527C11.5118 14.9046 14.5416 15.8872 17.4792 15.6108Z" fill="white"/>
</svg>
